<?xml version="1.0" encoding="UTF-8" standalone="no"?><!DOCTYPE svg PUBLIC "-//W3C//DTD SVG 1.1//EN" "http://www.w3.org/Graphics/SVG/1.1/DTD/svg11.dtd"><svg width="100%" height="100%" viewBox="0 0 2000 2000" version="1.1" xmlns="http://www.w3.org/2000/svg" xmlns:xlink="http://www.w3.org/1999/xlink" xml:space="preserve" xmlns:serif="http://www.serif.com/" style="fill-rule:evenodd;clip-rule:evenodd;stroke-linejoin:round;stroke-miterlimit:2;"><g><g><path d="M517.814,1214.776c-2.183,-266.126 212.105,-483.959 478.231,-486.141c266.126,-2.183 483.959,212.105 486.141,478.231c2.183,266.126 -212.105,483.959 -478.231,486.141c-266.126,2.183 -483.959,-212.105 -486.141,-478.231Z" style="fill:#22c55f;"/><path d="M751.697,1212.858c-1.124,-137.042 109.224,-249.216 246.267,-250.34c137.042,-1.124 249.216,109.224 250.34,246.267c1.124,137.042 -109.224,249.216 -246.267,250.34c-137.042,1.124 -249.216,-109.224 -250.34,-246.267Z"/><path d="M247.773,1331.179c-34.064,-86.329 -51.096,-185.927 -51.096,-298.794c0,-132.544 33.136,-253.445 99.408,-362.704c66.272,-109.259 159.411,-197.025 279.417,-263.296c120.006,-66.272 260.61,-99.408 421.812,-99.408l37.614,0c157.62,0 293.746,33.136 408.378,99.408c114.632,66.272 203.294,154.037 265.983,263.296c62.69,109.259 94.034,230.161 94.034,362.704c-0,112.867 -17.032,212.465 -51.096,298.794c0.032,-2.873 0.049,-5.75 0.049,-8.63c0,-415.192 -337.083,-752.276 -752.276,-752.276c-415.192,0 -752.276,337.083 -752.276,752.276c0,2.88 0.016,5.757 0.049,8.63Z" style="fill:#a588f5;"/></g></g></svg>