<svg viewBox="0 0 560 430" xmlns="http://www.w3.org/2000/svg" font-family="JetBrains Mono, ui-monospace, SFMono-Regular, Menlo, Consolas, monospace" role="img" aria-labelledby="title desc">
  <title id="title">Sleepwalker workflow diagram</title>
  <desc id="desc">AI Visibility and Content Intelligence flow through Sleepwalker into MCP, API, CLI, and Console access.</desc>
  <defs>
    <linearGradient id="hero-flow-gradient" x1="0%" y1="0%" x2="100%" y2="0%">
      <stop offset="0%" stop-color="#22c55e" stop-opacity="0.18"/>
      <stop offset="45%" stop-color="#22c55e" stop-opacity="0.9"/>
      <stop offset="100%" stop-color="#a78bfa" stop-opacity="0.85"/>
    </linearGradient>
    <linearGradient id="hero-core-gradient" x1="0%" y1="0%" x2="100%" y2="100%">
      <stop offset="0%" stop-color="#22c55e" stop-opacity="0.9"/>
      <stop offset="52%" stop-color="#60a5fa" stop-opacity="0.7"/>
      <stop offset="100%" stop-color="#a78bfa" stop-opacity="0.9"/>
    </linearGradient>
    <filter id="hero-soft-glow" x="-30%" y="-30%" width="160%" height="160%">
      <feGaussianBlur stdDeviation="8" result="blur"/>
      <feColorMatrix in="blur" type="matrix" values="0 0 0 0 0.13 0 0 0 0 0.77 0 0 0 0 0.37 0 0 0 0.4 0"/>
      <feMerge>
        <feMergeNode/>
        <feMergeNode in="SourceGraphic"/>
      </feMerge>
    </filter>
    <style>
      .grid path{fill:none;stroke:rgba(255,255,255,.055);stroke-width:1}.node rect{fill:rgba(245,243,239,.045);stroke:rgba(245,243,239,.16);stroke-width:1}.node text{fill:#f5f3ef;font-size:12px;font-weight:600;letter-spacing:.02em}.node .sub{fill:#8a8a8a;font-size:10px;font-weight:500}.output rect{stroke:rgba(167,139,250,.3)}.input rect{stroke:rgba(34,197,94,.24)}.flow{fill:none;stroke:url(#hero-flow-gradient);stroke-width:1.6;stroke-linecap:round;stroke-dasharray:10 14}.core-ring{fill:none;transform-origin:30px 45px}.outer{stroke:rgba(34,197,94,.22);stroke-width:1.2}.inner{stroke:rgba(167,139,250,.35);stroke-width:1.2}.core-dot{fill:url(#hero-core-gradient);opacity:.92}.logo-backdrop{fill:rgba(5,5,5,.72)}.caption text{fill:#6f6f6f;font-size:10px;letter-spacing:.14em;text-transform:uppercase}
    </style>
  </defs>

  <rect width="560" height="430" fill="#000000"/>
  <g class="grid" aria-hidden="true">
    <path d="M40 80H520"/><path d="M40 160H520"/><path d="M40 240H520"/><path d="M40 320H520"/>
    <path d="M120 40V390"/><path d="M220 40V390"/><path d="M340 40V390"/><path d="M440 40V390"/>
  </g>

  <g aria-hidden="true">
    <path class="flow" d="M174 139 C212 139 225 188 249 203"/>
    <path class="flow" d="M174 264 C214 264 226 234 249 223"/>
    <path class="flow" d="M311 199 C354 178 365 91 424 91"/>
    <path class="flow" d="M311 209 C358 198 368 169 424 169"/>
    <path class="flow" d="M311 222 C358 233 368 247 424 247"/>
    <path class="flow" d="M311 232 C354 257 365 325 424 325"/>
  </g>

  <g class="node input" transform="translate(42 104)">
    <rect width="132" height="70" rx="16"/>
    <text x="16" y="39">AI Visibility</text>
  </g>

  <g class="node input" transform="translate(42 229)">
    <rect width="132" height="70" rx="16"/>
    <text x="16" y="28">Content</text>
    <text x="16" y="46">Intelligence</text>
  </g>

  <g transform="translate(250 170)">
    <circle class="core-ring outer" cx="30" cy="45" r="70"/>
    <circle class="core-ring inner" cx="30" cy="45" r="45"/>
    <circle class="core-dot" cx="30" cy="45" r="27" filter="url(#hero-soft-glow)"/>
    <circle class="logo-backdrop" cx="30" cy="45" r="21"/>
    <g transform="translate(9 24) scale(0.021)">
      <path d="M517.814 1214.776c-2.183-266.126 212.105-483.959 478.231-486.141 266.126-2.183 483.959 212.105 486.141 478.231 2.183 266.126-212.105 483.959-478.231 486.141-266.126 2.183-483.959-212.105-486.141-478.231Z" fill="#22c55f"/>
      <path d="M751.697 1212.858c-1.124-137.042 109.224-249.216 246.267-250.34 137.042-1.124 249.216 109.224 250.34 246.267 1.124 137.042-109.224 249.216-246.267 250.34-137.042 1.124-249.216-109.224-250.34-246.267Z" fill="#000000"/>
      <path d="M247.773 1331.179c-34.064-86.329-51.096-185.927-51.096-298.794 0-132.544 33.136-253.445 99.408-362.704 66.272-109.259 159.411-197.025 279.417-263.296 120.006-66.272 260.61-99.408 421.812-99.408h37.614c157.62 0 293.746 33.136 408.378 99.408 114.632 66.272 203.294 154.037 265.983 263.296 62.69 109.259 94.034 230.161 94.034 362.704 0 112.867-17.032 212.465-51.096 298.794.032-2.873.049-5.75.049-8.63 0-415.192-337.083-752.276-752.276-752.276-415.192 0-752.276 337.083-752.276 752.276 0 2.88.016 5.757.049 8.63Z" fill="#a588f5"/>
    </g>
  </g>

  <g class="node output" transform="translate(424 62)">
    <rect width="96" height="58" rx="14"/>
    <text x="16" y="25">MCP</text><text x="16" y="43" class="sub">agents</text>
  </g>
  <g class="node output" transform="translate(424 140)">
    <rect width="96" height="58" rx="14"/>
    <text x="16" y="25">API</text><text x="16" y="43" class="sub">products</text>
  </g>
  <g class="node output" transform="translate(424 218)">
    <rect width="96" height="58" rx="14"/>
    <text x="16" y="25">CLI</text><text x="16" y="43" class="sub">scripts</text>
  </g>
  <g class="node output" transform="translate(424 296)">
    <rect width="96" height="58" rx="14"/>
    <text x="16" y="25">Console</text><text x="16" y="43" class="sub">human</text>
  </g>

  <g class="caption">
    <text x="42" y="394" text-anchor="start">intelligence</text>
    <text x="280" y="394" text-anchor="middle">sleepwalker</text>
    <text x="520" y="394" text-anchor="end">workflows</text>
  </g>
</svg>
