<svg viewBox="0 0 1280 640" xmlns="http://www.w3.org/2000/svg" font-family="ui-monospace, SFMono-Regular, Menlo, Consolas, monospace">
  <defs>
    <linearGradient id="sgp" x1="0" y1="0" x2="1" y2="0">
      <stop offset="0" stop-color="#22c55e"/>
      <stop offset="0.55" stop-color="#60a5fa"/>
      <stop offset="1" stop-color="#a78bfa"/>
    </linearGradient>
    <radialGradient id="sg1" cx="0.5" cy="0.5" r="0.5">
      <stop offset="0" stop-color="#22c55e" stop-opacity="0.18"/>
      <stop offset="1" stop-color="#22c55e" stop-opacity="0"/>
    </radialGradient>
    <radialGradient id="sg2" cx="0.5" cy="0.5" r="0.5">
      <stop offset="0" stop-color="#a78bfa" stop-opacity="0.2"/>
      <stop offset="1" stop-color="#a78bfa" stop-opacity="0"/>
    </radialGradient>
    <pattern id="sgrid" width="48" height="48" patternUnits="userSpaceOnUse">
      <path d="M48 0H0V48" fill="none" stroke="#ffffff" stroke-opacity="0.035" stroke-width="1"/>
    </pattern>
  </defs>

  <rect width="1280" height="640" fill="#000000"/>
  <rect width="1280" height="640" fill="url(#sgrid)"/>
  <circle cx="180" cy="120" r="420" fill="url(#sg1)"/>
  <circle cx="1120" cy="540" r="460" fill="url(#sg2)"/>
  <rect x="6" y="6" width="1268" height="628" rx="20" fill="none" stroke="#222222"/>

  <text x="64" y="88" fill="#8a8a8a" font-size="16" letter-spacing="4">DEVELOPER TOOLS</text>
  <text x="1216" y="88" text-anchor="end" fill="#8a8a8a" font-size="16" letter-spacing="2">pay as you go</text>

  <!-- real brand lockup, centered -->
  <g transform="translate(206,168) scale(0.42) translate(0,-843)">
    <path d="M75.253,1029.062c-0.295,-36.01 28.7,-65.485 64.71,-65.78c36.01,-0.295 65.485,28.7 65.78,64.71c0.295,36.01 -28.7,65.485 -64.71,65.78c-36.01,0.295 -65.485,-28.7 -65.78,-64.71Z" style="fill:#22c55f;"/>
    <path d="M106.9,1028.802c-0.152,-18.543 14.779,-33.722 33.323,-33.874c18.543,-0.152 33.722,14.779 33.874,33.323c0.152,18.543 -14.779,33.722 -33.323,33.874c-18.543,0.152 -33.722,-14.779 -33.874,-33.323Z"/>
    <path d="M38.714,1044.812c-4.609,-11.681 -6.914,-25.158 -6.914,-40.43c0,-17.935 4.484,-34.294 13.451,-49.078c8.967,-14.784 21.57,-26.66 37.808,-35.627c16.238,-8.967 35.263,-13.451 57.076,-13.451l5.09,0c21.328,0 39.747,4.484 55.258,13.451c15.511,8.967 27.508,20.843 35.99,35.627c8.483,14.784 12.724,31.143 12.724,49.078c-0,15.272 -2.305,28.749 -6.914,40.43c0.004,-0.389 0.007,-0.778 0.007,-1.168c0,-56.18 -45.611,-101.791 -101.791,-101.791c-56.18,0 -101.791,45.611 -101.791,101.791c0,0.39 0.002,0.779 0.007,1.168Z" style="fill:#a588f5;"/>
    <g>
      <path d="M366.38,1081.964c-6.83,0 -13.927,-0.64 -21.291,-1.921c-7.364,-1.281 -14.088,-2.935 -20.171,-4.963c-6.083,-2.028 -10.726,-4.216 -13.927,-6.564l11.526,-27.215c3.629,2.561 9.125,5.443 16.489,8.645c7.364,3.202 16.489,4.803 27.375,4.803c9.605,0 16.115,-1.441 19.53,-4.322c3.415,-2.882 5.123,-6.243 5.123,-10.085c0,-4.056 -1.441,-7.204 -4.322,-9.445c-2.882,-2.241 -6.99,-4.322 -12.327,-6.243c-5.336,-1.921 -11.633,-4.269 -18.89,-7.044c-7.044,-2.988 -13.767,-6.457 -20.171,-10.406c-6.403,-3.949 -11.58,-8.858 -15.528,-14.728c-3.949,-5.87 -5.923,-13.074 -5.923,-21.612c0,-13.874 5.336,-24.493 16.009,-31.857c10.672,-7.364 24.76,-11.046 42.263,-11.046c8.965,0 17.663,0.961 26.094,2.882c8.431,1.921 14.781,4.376 19.05,7.364l-12.487,27.535c-2.561,-2.561 -6.777,-4.909 -12.647,-7.044c-5.87,-2.134 -12.86,-3.202 -20.971,-3.202c-15.155,0 -22.732,4.589 -22.732,13.767c0,4.482 1.654,8.058 4.963,10.726c3.308,2.668 7.684,4.909 13.127,6.724c5.443,1.814 11.366,4.002 17.77,6.564c13.02,5.123 22.999,11.046 29.936,17.77c6.937,6.724 10.406,15.635 10.406,26.734c0,10.032 -2.668,18.357 -8.004,24.973c-5.336,6.617 -12.433,11.473 -21.291,14.568c-8.858,3.095 -18.517,4.642 -28.976,4.642Z" style="fill:#fff;"/>
      <rect x="459.23" y="843.436" width="34.258" height="235.326" style="fill:#fff;"/>
      <path d="M606.509,1081.964c-18.357,0 -33.298,-3.575 -44.824,-10.726c-11.526,-7.151 -19.957,-16.596 -25.294,-28.335c-5.336,-11.74 -8.004,-24.226 -8.004,-37.46c0,-16.009 3.255,-29.776 9.765,-41.302c6.51,-11.526 15.528,-20.438 27.055,-26.734c11.526,-6.297 24.547,-9.445 39.061,-9.445c23.266,0 40.235,6.457 50.907,19.37c10.672,12.914 16.009,30.256 16.009,52.028c0,5.763 -0.32,11.74 -0.961,17.93l-105.657,0c2.348,13.234 7.097,22.679 14.248,28.335c7.151,5.656 16.702,8.485 28.655,8.485c11.526,0 20.598,-1.067 27.215,-3.202c6.617,-2.134 12.06,-4.269 16.329,-6.403l10.566,24.653c-4.269,2.775 -10.886,5.603 -19.851,8.485c-8.965,2.882 -20.704,4.322 -35.219,4.322Zm-41.943,-88.688l72.999,0c0.213,-13.874 -2.882,-23.373 -9.285,-28.495c-6.403,-5.123 -14.728,-7.684 -24.973,-7.684c-10.672,0 -19.37,2.828 -26.094,8.485c-6.724,5.656 -10.939,14.888 -12.647,27.695Z" style="fill:#fff;"/>
      <path d="M776.84,1081.964c-18.357,0 -33.298,-3.575 -44.824,-10.726c-11.526,-7.151 -19.957,-16.596 -25.294,-28.335c-5.336,-11.74 -8.004,-24.226 -8.004,-37.46c0,-16.009 3.255,-29.776 9.765,-41.302c6.51,-11.526 15.528,-20.438 27.055,-26.734c11.526,-6.297 24.547,-9.445 39.061,-9.445c23.266,0 40.235,6.457 50.907,19.37c10.672,12.914 16.009,30.256 16.009,52.028c0,5.763 -0.32,11.74 -0.961,17.93l-105.657,0c2.348,13.234 7.097,22.679 14.248,28.335c7.151,5.656 16.702,8.485 28.655,8.485c11.526,0 20.598,-1.067 27.215,-3.202c6.617,-2.134 12.06,-4.269 16.329,-6.403l10.566,24.653c-4.269,2.775 -10.886,5.603 -19.851,8.485c-8.965,2.882 -20.704,4.322 -35.219,4.322Zm-41.943,-88.688l72.999,0c0.213,-13.874 -2.882,-23.373 -9.285,-28.495c-6.403,-5.123 -14.728,-7.684 -24.973,-7.684c-10.672,0 -19.37,2.828 -26.094,8.485c-6.724,5.656 -10.939,14.888 -12.647,27.695Z" style="fill:#fff;"/>
      <path d="M874.813,1156.564l0,-224.761l33.298,0l0,27.215c4.909,-8.751 11.793,-16.115 20.651,-22.092c8.858,-5.977 20.331,-8.965 34.418,-8.965c13.234,0 25.08,2.775 35.539,8.324c10.459,5.55 18.73,13.981 24.813,25.294c6.083,11.313 9.125,25.614 9.125,42.903c0,15.795 -3.202,29.509 -9.605,41.142c-6.403,11.633 -14.941,20.598 -25.614,26.894c-10.672,6.297 -22.625,9.445 -35.859,9.445c-12.593,0 -23.373,-2.241 -32.337,-6.724c-8.965,-4.482 -16.009,-10.672 -21.131,-18.57l0,99.894l-33.298,0Zm78.762,-103.736c14.514,0 25.347,-4.589 32.497,-13.767c7.151,-9.178 10.726,-20.384 10.726,-33.618c0,-13.874 -3.575,-25.294 -10.726,-34.258c-7.151,-8.965 -17.983,-13.447 -32.497,-13.447c-7.684,0 -14.835,1.814 -21.452,5.443c-6.617,3.629 -11.953,8.858 -16.009,15.688c-4.056,6.83 -6.083,15.048 -6.083,24.653l0,2.241c0,9.392 2.028,17.663 6.083,24.813c4.056,7.151 9.392,12.647 16.009,16.489c6.617,3.842 13.767,5.763 21.452,5.763Z" style="fill:#fff;"/>
      <path d="M1198.507,1078.762l-43.543,-81.644l-43.543,81.644l-6.083,0l-61.793,-146.959l37.14,0l31.697,85.486l41.943,-85.486l1.281,0l42.263,84.846l31.697,-84.846l36.5,0l-61.473,146.959l-6.083,0Z" style="fill:#fff;"/>
      <path d="M1350.588,1081.964c-13.02,0 -25.133,-3.095 -36.34,-9.285c-11.206,-6.19 -20.224,-15.048 -27.055,-26.574c-6.83,-11.526 -10.246,-25.294 -10.246,-41.302c0,-15.368 2.935,-28.815 8.805,-40.342c5.87,-11.526 14.194,-20.491 24.973,-26.894c10.779,-6.403 23.639,-9.605 38.581,-9.605c8.965,0 17.129,1.547 24.493,4.642c7.364,3.095 13.554,6.83 18.57,11.206c5.016,4.376 8.378,8.591 10.085,12.647l0.64,-24.653l32.978,0l0,146.959l-32.658,0l-0.64,-25.934c-2.134,4.696 -5.71,9.285 -10.726,13.767c-5.016,4.482 -11.046,8.164 -18.09,11.046c-7.044,2.882 -14.835,4.322 -23.373,4.322Zm5.763,-28.815c7.898,0 15.101,-1.868 21.612,-5.603c6.51,-3.735 11.74,-9.018 15.688,-15.849c3.949,-6.83 5.923,-14.941 5.923,-24.333l0,-2.241c0,-9.605 -1.974,-17.983 -5.923,-25.133c-3.949,-7.151 -9.178,-12.7 -15.688,-16.649c-6.51,-3.949 -13.714,-5.923 -21.612,-5.923c-14.301,0 -25.027,4.589 -32.177,13.767c-7.151,9.178 -10.726,20.491 -10.726,33.938c0,13.661 3.575,25.08 10.726,34.258c7.151,9.178 17.876,13.767 32.177,13.767Z" style="fill:#fff;"/>
      <rect x="1478.017" y="843.436" width="34.258" height="235.326" style="fill:#fff;"/>
      <path d="M1555.178,1078.762l0,-235.326l32.978,0l0,129.029l-0.64,24.973l56.03,-65.635l42.583,0l-55.39,61.473l55.71,85.486l-40.662,0l-29.776,-48.026l-8.324,-16.329l-19.21,20.811l0,43.543l-33.298,0Z" style="fill:#fff;"/>
      <path d="M1778.978,1081.964c-18.357,0 -33.298,-3.575 -44.824,-10.726c-11.526,-7.151 -19.957,-16.596 -25.294,-28.335c-5.336,-11.74 -8.004,-24.226 -8.004,-37.46c0,-16.009 3.255,-29.776 9.765,-41.302c6.51,-11.526 15.528,-20.438 27.055,-26.734c11.526,-6.297 24.547,-9.445 39.061,-9.445c23.266,0 40.235,6.457 50.907,19.37c10.672,12.914 16.009,30.256 16.009,52.028c0,5.763 -0.32,11.74 -0.961,17.93l-105.657,0c2.348,13.234 7.097,22.679 14.248,28.335c7.151,5.656 16.702,8.485 28.655,8.485c11.526,0 20.598,-1.067 27.215,-3.202c6.617,-2.134 12.06,-4.269 16.329,-6.403l10.566,24.653c-4.269,2.775 -10.886,5.603 -19.851,8.485c-8.965,2.882 -20.704,4.322 -35.219,4.322Zm-41.943,-88.688l72.999,0c0.213,-13.874 -2.882,-23.373 -9.285,-28.495c-6.403,-5.123 -14.728,-7.684 -24.973,-7.684c-10.672,0 -19.37,2.828 -26.094,8.485c-6.724,5.656 -10.939,14.888 -12.647,27.695Z" style="fill:#fff;"/>
      <path d="M1876.631,1078.762l0,-146.959l34.579,0l0,28.815c3.415,-9.605 8.911,-17.449 16.489,-23.533c7.577,-6.083 16.382,-9.125 26.414,-9.125c6.83,0 11.526,0.64 14.088,1.921l-4.803,34.899c-1.921,-1.281 -6.083,-1.921 -12.487,-1.921c-5.336,0 -11.099,1.174 -17.289,3.522c-6.19,2.348 -11.473,6.457 -15.849,12.327c-4.376,5.87 -6.564,14.034 -6.564,24.493l0,75.561l-34.579,0Z" style="fill:#fff;"/>
    </g>
  </g>

  <!-- positioning -->
  <text x="640" y="372" text-anchor="middle" fill="#f5f3ef" font-size="36" font-weight="700">AI Visibility and Content Intelligence</text>
  <text x="640" y="414" text-anchor="middle" fill="#a0a0a0" font-size="22">Run prompts, inspect citations, score pages, and save every result.</text>

  <!-- surface chips -->
  <g font-size="20" font-weight="600" text-anchor="middle">
    <g><rect x="389" y="456" width="150" height="54" rx="12" fill="#0c0c0c" stroke="#2a2a2a"/><text x="464" y="491" fill="#f5f3ef">App</text></g>
    <g><rect x="555" y="456" width="116" height="54" rx="12" fill="#0c0c0c" stroke="#2a2a2a"/><text x="613" y="491" fill="#f5f3ef">API</text></g>
    <g><rect x="687" y="456" width="116" height="54" rx="12" fill="#0c0c0c" stroke="#2a2a2a"/><text x="745" y="491" fill="#f5f3ef">MCP</text></g>
    <g><rect x="819" y="456" width="116" height="54" rx="12" fill="#0c0c0c" stroke="#2a2a2a"/><text x="877" y="491" fill="#f5f3ef">CLI</text></g>
  </g>

  <!-- footer -->
  <rect x="480" y="556" width="320" height="3" rx="1.5" fill="url(#sgp)"/>
  <text x="640" y="596" text-anchor="middle" fill="#8a8a8a" font-size="18">github.com/followanton/sleepwalker</text>
</svg>
